<svg height="512" viewBox="0 0 60 58" width="512" xmlns="http://www.w3.org/2000/svg"><g id="015---Mystic-Man" fill="none"><path id="Shape" d="m51.43 44c-.06 2.83-.67 5.48-3 7.08-4.77 3.36-12.55 6.92-18.43 6.92s-13.67-3.56-18.46-6.89c-2.3-1.6-2.91-4.25-3-7.08.31.13 7.47 2.9 9.43 0 2.32-3.49 4.49-5 8.86-5 .1 0 1.09-.45 1.19-.49.6018053-.3491342 1.2842689-.5352607 1.98-.54.5409825-.0017125 1.0772947.1001189 1.58.3.4976153.2578514 1.0121265.4816972 1.54.67 4.47 0 6.58 1.56 8.88 5 2 2.96 9.12.19 9.43.03z" fill="#f9c795"/><path id="Shape" d="m51.43 44c-.31.13-7.47 2.9-9.43 0-.8532663-1.4174103-1.9904068-2.6430708-3.34-3.6 2.7596596.4211208 5.5484788.6217553 8.34.6 1.5116336.0168206 2.9954239-.4071195 4.27-1.22.09 1.39.2 2.84.16 4.22z" fill="#955ba5"/><path id="Shape" d="m52.53 18.43c-3.07 2.33-7.79 5.57-11.53 6.34-4.15.89-10 .1-10.93 4.63 1.37-15.67 16.21-23.1 16.79-23.4.8341238.86160378 1.5687373 1.81425327 2.19 2.84 1.6234365 2.7259389 2.6462295 5.7670434 3 8.92z" fill="#955ba5"/><path id="Shape" d="m46.86 6c-.58.29-15.42 7.72-16.81 23.39-.08.79 0 .79-.1 0-1.4-15.72-16.35-23.15-16.82-23.39 4.42-4.57 10.51-6 16.87-6s12.61 1.44 16.86 6z" fill="#3d324c"/><path id="Shape" d="m21.35 40.4c-1.3605028.9475009-2.5026994 2.1749359-3.35 3.6-2 2.93-9.12.16-9.43 0 0-1.4.07-2.86.17-4.24 1.2705055.8159428 2.7500652 1.2466127 4.26 1.24 2.7948334.0215248 5.5869571-.1791068 8.35-.6z" fill="#955ba5"/><path id="Shape" d="m30 29.4c-.31-2.15-2.09-3.13-4.16-3.65-4.72-1.19-6.5.35-13.46-4-3.5-2.2-4.76-3.35-4.86-3.35l.5-.65c.1269216-1.0406428.3172759-2.0725635.57-3.09.73975659-3.2304136 2.303918-6.21403418 4.54-8.66.47.24 15.42 7.67 16.87 23.4z" fill="#955ba5"/><path id="Shape" d="m51.27 39.77c-1.2734879.8164006-2.7573567 1.2438382-4.27 1.23-2.7881846.0212243-5.5736388-.1794086-8.33-.6-1.6791818-.993962-3.6103396-1.4802247-5.56-1.4-.5462507-.2026187-1.0804574-.4363342-1.6-.7-.9949469-.3800247-2.0950531-.3800247-3.09 0-.5046526.2501602-1.0220236.473798-1.55.67-1.9334322-.0762357-3.8474587.4100868-5.51 1.4-2.7652585.4338878-5.5609464.6445676-8.36.63-1.5069268.0155687-2.9862546-.4046159-4.26-1.21-8.51-5.37-7.74-26.79-7.74-26.79 4.19 3.89 12.41 10.61 18 11.77 4.1.88 10.73.11 11 5.22.26-5.1 6.93-4.35 11-5.22 5.6-1.16 13.81-7.86 18-11.77 0 0 .74 21.39-7.73 26.77z" fill="#ff5364"/><path id="Shape" d="m12.16 29.18s7.53-1 12.33 1.79c.4291382.2167064.6433401.7081108.51 1.17-.52 1.47-2.06 4.57-5.7 3.71-4.77-1.11-7.14-6.67-7.14-6.67z" fill="#b0d3f0"/><path id="Shape" d="m47.84 29.18s-7.53-1-12.33 1.79c-.4099628.2328058-.6016373.7203258-.46 1.17.52 1.47 2.06 4.57 5.7 3.71 4.72-1.11 7.09-6.67 7.09-6.67z" fill="#b0d3f0"/><g fill="#f09372"><path id="Shape" d="m34 49h-8c-.5522847 0-1-.4477153-1-1s.4477153-1 1-1h8c.5522847 0 1 .4477153 1 1s-.4477153 1-1 1z"/><path id="Shape" d="m31 53h-2c-.5522847 0-1-.4477153-1-1s.4477153-1 1-1h2c.5522847 0 1 .4477153 1 1s-.4477153 1-1 1z"/><path id="Shape" d="m33 41c-.3147573 0-.6111456-.1481942-.8-.4-1.14-1.52-2.2-1.6-2.2-1.6-.908453.2211281-1.6901904.7975244-2.17 1.6-.3313708.4418278-.9581722.5313708-1.4.2s-.5313708-.9581722-.2-1.4c1.77-2.33 3.57-2.4 3.77-2.4s2 .07 3.8 2.4c.2272632.3030176.2638192.7084296.0944272 1.0472136s-.5156551.5527864-.8944272.5527864z"/></g></g></svg>