<?xml version="1.0" encoding="iso-8859-1"?>
<!-- Generator: Adobe Illustrator 19.0.0, SVG Export Plug-In . SVG Version: 6.00 Build 0)  -->
<svg version="1.1" id="Capa_1" xmlns="http://www.w3.org/2000/svg" xmlns:xlink="http://www.w3.org/1999/xlink" x="0px" y="0px"
	 viewBox="0 0 512 512" style="enable-background:new 0 0 512 512;" xml:space="preserve">
<g>
	<g transform="translate(1 1)">
		<path style="fill:#283593;" d="M459.8,292.717c0-37.291-14.933-82.688-40.277-123.477c13.739-35.584,1.792-81.92-9.301-112.213
			c-1.983-4.164-6.183-6.816-10.795-6.816c-4.612,0-8.812,2.652-10.795,6.816c-5.23,16.806-14.589,32.032-27.221,44.288
			c-19.087-16.236-41.181-28.558-65.024-36.267l-27.477-48.555c-2.478-5.456-7.917-8.96-13.909-8.96
			c-5.993,0-11.432,3.504-13.909,8.96l-27.477,48.555c-23.843,7.708-45.937,20.031-65.024,36.267
			c-12.632-12.256-21.991-27.482-27.221-44.288c-1.983-4.164-6.183-6.816-10.795-6.816s-8.812,2.652-10.795,6.816
			c-11.093,30.293-23.04,76.629-9.301,112.213C65.133,210.029,50.2,255.426,50.2,292.717c0.646,40.434,17.639,78.884,47.104,106.581
			c-8.606,24.925-12.99,51.113-12.971,77.483c0,6.656,6.485,12.8,17.067,17.408c0.171,0.085,0.427,0.171,0.597,0.256
			c4.754,1.968,9.663,3.538,14.677,4.693c6.162,1.341,12.404,2.282,18.688,2.816c1.451,0.085,3.072,0.171,4.608,0.256
			c1.365,0.085,2.731,0.171,4.096,0.171c1.28,0.085,2.645,0.085,4.011,0.085h0.256c4.352,0,8.704-0.171,12.8-0.512
			c5.706-0.476,11.377-1.303,16.981-2.475c2.304-0.427,4.608-1.024,6.741-1.621c7.825-1.861,15.159-5.382,21.504-10.325
			c3.496-2.513,5.686-6.456,5.973-10.752c-0.005-0.315-0.034-0.628-0.085-0.939c-0.256-2.389-0.853-9.301-1.365-19.712l0.085-0.256
			c11.73,2.083,23.592,3.338,35.499,3.755c2.816,0.085,5.632,0.171,8.533,0.171s5.717-0.085,8.533-0.171
			c11.906-0.417,23.769-1.672,35.499-3.755l0.085,0.256c-0.512,10.411-1.109,17.323-1.365,19.712
			c-0.052,0.31-0.08,0.624-0.085,0.939c0.287,4.296,2.478,8.239,5.973,10.752c0.914,0.807,1.883,1.548,2.901,2.219
			c5.731,3.673,12.011,6.409,18.603,8.107c2.133,0.597,4.437,1.195,6.741,1.621c5.604,1.172,11.276,1.998,16.981,2.475
			c2.304,0.171,4.693,0.341,7.083,0.427c1.451,0,2.901,0.085,4.352,0.085h1.621c1.365,0,2.731,0,4.011-0.085
			c1.365,0,2.731-0.085,4.096-0.171c1.536-0.085,3.157-0.171,4.608-0.256c6.284-0.534,12.526-1.475,18.688-2.816
			c5.014-1.156,9.923-2.725,14.677-4.693c0.171-0.085,0.427-0.171,0.597-0.256c2.991-1.282,5.849-2.854,8.533-4.693
			c4.775-2.563,7.971-7.325,8.533-12.715c0.012-26.369-4.371-52.555-12.971-77.483C442.161,371.601,459.154,333.151,459.8,292.717z"
			/>
		<path style="fill:#00695C;" d="M419.523,169.24c13.739-35.584,1.792-81.92-9.301-112.213c-1.983-4.164-6.183-6.816-10.795-6.816
			c-4.612,0-8.812,2.652-10.795,6.816c-1.663,4.788-3.571,9.488-5.717,14.08c-5.002,11.448-12.324,21.734-21.504,30.208
			c-2.56-2.048-5.035-4.096-7.68-6.144c-17.215-13.302-36.622-23.496-57.344-30.123c-26.949-8.42-55.825-8.42-82.773,0
			c-21.414,6.867-41.416,17.533-59.051,31.488c-2.048,1.536-4.011,3.157-5.973,4.779c-0.277-0.234-0.534-0.491-0.768-0.768
			c-12.219-12.145-21.298-27.081-26.453-43.52c-1.983-4.164-6.183-6.816-10.795-6.816s-8.812,2.652-10.795,6.816
			c-1.707,4.693-3.413,9.728-5.035,15.104c-9.131,29.269-15.872,66.987-4.267,97.109C65.133,210.029,50.2,255.426,50.2,292.717
			c0.646,40.434,17.639,78.884,47.104,106.581c31.354,29.835,70.958,49.548,113.664,56.576c11.73,2.083,23.592,3.338,35.499,3.755
			c2.816,0.085,5.632,0.171,8.533,0.171s5.717-0.085,8.533-0.171c11.906-0.417,23.769-1.672,35.499-3.755
			c25.369-4.422,49.807-13.106,72.277-25.685c15.084-8.448,28.997-18.833,41.387-30.891c29.465-27.698,46.458-66.147,47.104-106.581
			C459.8,255.426,444.867,210.029,419.523,169.24z"/>
		<g>
			<path style="fill:#009688;" d="M434.2,309.784c-0.646,40.434-17.639,78.884-47.104,106.581
				c-5.001,4.897-10.272,9.513-15.787,13.824c-22.47,12.579-46.908,21.264-72.277,25.685c-11.73,2.083-23.592,3.338-35.499,3.755
				c-2.816,0.085-5.632,0.171-8.533,0.171s-5.717-0.085-8.533-0.171c-11.906-0.417-23.769-1.672-35.499-3.755
				c-42.706-7.028-82.31-26.741-113.664-56.576C67.839,371.601,50.846,333.151,50.2,292.717c0-37.291,14.933-82.688,40.277-123.477
				c-11.605-30.123-4.864-67.84,4.267-97.109c1.621-5.376,3.328-10.411,5.035-15.104c1.983-4.164,6.183-6.816,10.795-6.816
				s8.812,2.652,10.795,6.816c5.155,16.439,14.234,31.375,26.453,43.52c0.234,0.277,0.491,0.534,0.768,0.768
				c1.963-1.621,3.925-3.243,5.973-4.779c10.609-5.977,21.822-10.811,33.451-14.421c26.949-8.42,55.825-8.42,82.773,0
				c23.843,7.708,45.937,20.031,65.024,36.267c7.35-6.569,13.425-14.437,17.92-23.211c2.645,2.048,5.12,4.096,7.68,6.144
				c9.18-8.474,16.502-18.76,21.504-30.208c0.717,0.903,1.293,1.91,1.707,2.987c11.093,30.293,23.04,76.629,9.301,112.213
				C419.267,227.096,434.2,272.493,434.2,309.784z"/>
			<path style="fill:#009688;" d="M148.589,101.314c-0.277-0.234-0.534-0.491-0.768-0.768c2.219-1.365,4.437-2.731,6.741-4.011
				C152.515,98.072,150.552,99.693,148.589,101.314z"/>
		</g>
		<g>
			<path style="fill:#2C2F38;" d="M280.6,152.6h-51.2c-4.713,0-8.533-3.821-8.533-8.533s3.821-8.533,8.533-8.533h51.2
				c4.713,0,8.533,3.821,8.533,8.533S285.313,152.6,280.6,152.6z"/>
			<path style="fill:#2C2F38;" d="M306.2,118.466H203.8c-4.713,0-8.533-3.821-8.533-8.533c0-4.713,3.82-8.533,8.533-8.533h102.4
				c4.713,0,8.533,3.821,8.533,8.533C314.733,114.646,310.913,118.466,306.2,118.466z"/>
		</g>
		<path style="fill:#556080;" d="M90.648,169.666c-0.085-0.171-0.085-0.256-0.171-0.427"/>
		<path style="fill:#2C2F38;" d="M263.533,434.2v25.429c-2.816,0.085-5.632,0.171-8.533,0.171s-5.717-0.085-8.533-0.171V434.2
			c0-4.713,3.821-8.533,8.533-8.533S263.533,429.487,263.533,434.2z"/>
		<g>
			<path style="fill:#BDC3C7;" d="M123.587,475.16c-4.843,4.308-6.883,10.954-5.291,17.237c0.45,2.376-0.14,4.83-1.621,6.741
				c-5.014-1.156-9.923-2.725-14.677-4.693c-0.171-0.085-0.427-0.171-0.597-0.256c-2.301-12.303,2.317-24.878,12.032-32.768
				c3.794-2.804,9.143-2.002,11.947,1.792S127.38,472.356,123.587,475.16z"/>
			<path style="fill:#BDC3C7;" d="M167.277,482.84c-4.251,5.441-6.429,12.216-6.144,19.115c-4.096,0.341-8.448,0.512-12.8,0.512
				h-0.256c-1.365,0-2.73,0-4.011-0.085c-0.464-11.539,3.47-22.824,11.008-31.573c3.331-3.323,8.718-3.339,12.068-0.036
				S170.553,479.463,167.277,482.84z"/>
			<path style="fill:#BDC3C7;" d="M408.6,494.189c-0.171,0.085-0.427,0.171-0.597,0.256c-4.754,1.968-9.663,3.538-14.677,4.693
				c-1.481-1.911-2.072-4.366-1.621-6.741c1.572-6.282-0.465-12.918-5.291-17.237c-3.692-2.883-4.411-8.184-1.621-11.947
				c2.788-3.696,8.015-4.491,11.776-1.792C406.283,469.311,410.901,481.887,408.6,494.189z"/>
			<path style="fill:#BDC3C7;" d="M365.933,502.381c-1.28,0.085-2.645,0.085-4.011,0.085h-1.621c-1.451,0-2.901-0.085-4.352-0.085
				c-2.389-0.085-4.779-0.256-7.083-0.427c0.284-6.899-1.894-13.673-6.144-19.115c-3.172-3.424-3.059-8.746,0.256-12.032
				c3.322-3.243,8.625-3.243,11.947,0C362.463,479.557,366.398,490.842,365.933,502.381z"/>
		</g>
		<path style="fill:#FFFFFF;" d="M212.333,203.8c0,16.052-11.184,29.934-26.868,33.351c-15.684,3.417-31.629-4.556-38.306-19.153
			c-6.677-14.597-2.281-31.874,10.56-41.505L212.333,203.8z"/>
		<g>
			<path style="fill:#2C2F38;" d="M178.2,237.933c-4.024-0.039-7.462-2.911-8.218-6.863c-0.756-3.953,1.38-7.89,5.105-9.412
				s8.007-0.205,10.235,3.146c2.227,3.352,1.783,7.809-1.063,10.654C182.622,237.016,180.459,237.9,178.2,237.933z"/>
			<path style="fill:#2C2F38;" d="M229.391,220.866c-1.322,0.001-2.626-0.307-3.808-0.9L140.25,177.3
				c-2.735-1.359-4.535-4.076-4.72-7.124c-0.185-3.048,1.272-5.963,3.822-7.644c2.55-1.681,5.803-1.871,8.532-0.498l85.333,42.667
				c3.542,1.77,5.401,5.745,4.49,9.598C236.794,218.151,233.351,220.871,229.391,220.866z"/>
		</g>
		<path style="fill:#FFFFFF;" d="M297.67,203.8c0,16.052,11.184,29.934,26.868,33.351c15.684,3.417,31.629-4.556,38.306-19.153
			s2.281-31.874-10.56-41.505L297.67,203.8z"/>
		<g>
			<path style="fill:#2C2F38;" d="M331.803,237.933c4.024-0.039,7.462-2.911,8.218-6.863c0.756-3.953-1.38-7.89-5.105-9.412
				c-3.726-1.522-8.007-0.205-10.235,3.146c-2.227,3.352-1.783,7.809,1.063,10.654C327.381,237.016,329.544,237.9,331.803,237.933z"
				/>
			<path style="fill:#2C2F38;" d="M280.611,220.866c1.322,0.001,2.626-0.307,3.808-0.9l85.333-42.667
				c4.216-2.108,5.925-7.234,3.817-11.45s-7.234-5.925-11.45-3.817L276.786,204.7c-3.542,1.77-5.401,5.745-4.49,9.598
				C273.209,218.151,276.651,220.871,280.611,220.866z"/>
		</g>
		<g>
			<path style="fill:#CFD8DC;" d="M177.432,289.901l-21.675,21.675c-2.267,2.254-5.605,3.05-8.645,2.061
				c-3.04-0.989-5.27-3.597-5.776-6.754l-5.803-34.816C148.888,279.357,162.92,285.33,177.432,289.901z"/>
			<path style="fill:#CFD8DC;" d="M229.4,297.154v0.512l-22.443,26.709c-2.122,2.688-5.481,4.091-8.884,3.709
				c-3.403-0.382-6.368-2.494-7.841-5.586l-11.605-32.256C195.224,294.514,212.264,296.834,229.4,297.154z"/>
			<path style="fill:#CFD8DC;" d="M374.467,272.066l-5.803,34.816c-0.506,3.157-2.736,5.765-5.776,6.754
				c-3.04,0.989-6.378,0.194-8.645-2.061l-21.675-21.675C347.08,285.33,361.112,279.357,374.467,272.066z"/>
			<path style="fill:#CFD8DC;" d="M280.6,297.154v0.512l-18.261,30.464c-1.545,2.58-4.331,4.16-7.339,4.16s-5.794-1.579-7.339-4.16
				L229.4,297.666v-0.512c7.68,0.341,16.128,0.512,25.6,0.512C264.472,297.666,272.92,297.496,280.6,297.154z"/>
			<path style="fill:#CFD8DC;" d="M331.373,290.242l-11.605,32.256c-1.473,3.092-4.438,5.204-7.841,5.586
				c-3.403,0.382-6.763-1.02-8.884-3.709L280.6,297.666v-0.512C297.736,296.834,314.775,294.514,331.373,290.242z"/>
		</g>
		<path style="fill:#2C2F38;" d="M425.225,277.9c-2.981-8.035-9.147-14.482-17.042-17.817c-12.541-4.15-26.274-2.558-37.533,4.35
			c-33.917,16.958-49.4,24.7-115.65,24.7s-81.733-7.742-115.65-24.7c-11.26-6.908-24.992-8.5-37.533-4.35
			c-7.894,3.335-14.061,9.782-17.042,17.817c-0.973,2.893-0.326,6.086,1.697,8.372s5.113,3.317,8.103,2.704
			c2.99-0.613,5.425-2.778,6.384-5.676c1.442-3.322,4.08-5.98,7.392-7.446c7.985-2.019,16.45-0.626,23.367,3.846
			c34.175,17.088,53,26.5,123.283,26.5s89.108-9.412,123.283-26.5c6.869-4.409,15.238-5.826,23.175-3.925
			c3.444,1.439,6.182,4.179,7.617,7.625c1.539,4.431,6.368,6.788,10.808,5.276C424.324,287.163,426.71,282.349,425.225,277.9
			L425.225,277.9z"/>
	</g>
	<g>
		<path d="M88.738,402.529C80.874,426.826,76.846,452.2,76.8,477.737c0,5.979,2.975,17.246,22.833,25.508
			c11.578,4.616,23.806,7.392,36.242,8.229l4.542,0.25c2.833,0.183,5.75,0.275,8.917,0.275c1.259,0,2.492-0.158,3.751-0.188
			c0.18,0.011,0.333,0.104,0.516,0.104c0.288-0.042,0.573-0.099,0.855-0.172c8.81-0.2,17.586-1.167,26.229-2.89
			c2.55-0.475,5.117-1.137,7.475-1.8c9.018-2.142,17.456-6.238,24.717-12c5.48-4.1,8.79-10.476,8.991-17.316
			c0.009-0.592-0.036-1.183-0.133-1.766c-0.155-1.472-0.43-4.681-0.728-9.041c23.221,3.204,46.771,3.204,69.992,0
			c-0.291,4.296-0.553,7.389-0.672,8.582c-0.127,0.735-0.191,1.479-0.192,2.225c0.172,6.746,3.4,13.049,8.775,17.129
			c1.186,1.059,2.444,2.034,3.767,2.917c6.509,4.207,13.653,7.337,21.158,9.271c2.367,0.663,4.933,1.325,7.275,1.758
			c8.51,1.767,17.155,2.804,25.842,3.1l5.975,0.087c2.908,0,5.825-0.092,8.892-0.288l4.55-0.258
			c12.324-0.842,24.442-3.6,35.917-8.175c3.764-1.523,7.352-3.449,10.7-5.746c7.211-4.053,11.827-11.533,12.217-19.796
			c-0.046-25.538-4.074-50.912-11.938-75.209c28.98-28.861,45.516-67.916,46.071-108.812c0-37.756-14.422-82.884-39.502-124.442
			c12.192-36.799,1.17-82.099-10.606-114.229c-3.235-7.542-10.667-12.417-18.873-12.38c-8.206,0.037-15.594,4.98-18.76,12.55
			c-4.269,13.059-11,25.18-19.828,35.708c-17.559-13.896-37.364-24.689-58.559-31.913l-25.888-45.753
			C273.312,5.135,265.039-0.006,255.983,0s-17.322,5.159-21.316,13.287l-25.872,45.724c-21.195,7.224-41,18.017-58.559,31.913
			c-8.828-10.528-15.558-22.649-19.828-35.708c-2.924-7.743-10.435-12.782-18.708-12.55c-8.275-0.228-15.82,4.709-18.925,12.383
			c-11.776,32.126-22.798,77.425-10.606,114.224c-25.08,41.558-39.502,86.686-39.502,124.442
			C43.222,334.613,59.758,373.668,88.738,402.529z M204.8,477.737c-0.43,1.803-1.529,3.376-3.075,4.4
			c-5.402,4.061-11.593,6.95-18.175,8.483c-1.9,0.538-3.95,1.075-6.208,1.5c-4.653,0.967-9.355,1.673-14.086,2.116
			c0.844-3.81,2.553-7.375,4.995-10.42c3.257-3.363,3.195-8.723-0.138-12.011c-3.333-3.288-8.693-3.275-12.012,0.028
			c-5.676,6.473-9.276,14.502-10.334,23.045c-1.489-0.042-3.016-0.106-4.658-0.208l-4.008-0.217
			c-6.049-0.511-12.054-1.464-17.964-2.849c-0.908-5.736,1.141-11.543,5.447-15.439c3.757-2.81,4.54-8.125,1.755-11.9
			c-2.785-3.775-8.095-4.594-11.888-1.833c-6.979,5.797-11.389,14.112-12.273,23.141c-5.975-3.18-8.31-6.295-8.31-7.837
			c0.052-21.017,3-41.927,8.761-62.139c29.126,24.315,63.878,40.948,101.084,48.38C204.129,470.876,204.554,475.738,204.8,477.737z
			 M413.225,483.537c-1.09,0.757-2.225,1.445-3.399,2.061c-0.879-9.038-5.291-17.363-12.276-23.165
			c-3.756-2.719-9-1.913-11.767,1.808c-2.786,3.751-2.069,9.04,1.617,11.913c4.32,3.896,6.376,9.713,5.463,15.458
			c-5.831,1.37-11.754,2.313-17.721,2.821l-4.658,0.258c-1.344,0.086-2.839,0.092-4.259,0.132
			c-1.066-8.523-4.662-16.531-10.324-22.99c-3.286-3.284-8.605-3.304-11.917-0.046c-3.334,3.274-3.442,8.612-0.242,12.017
			c2.433,3.027,4.139,6.573,4.986,10.364c-4.794-0.437-9.56-1.134-14.278-2.089c-2.05-0.383-4.1-0.921-5.967-1.446
			c-5.731-1.443-11.196-3.788-16.192-6.946c-0.75-0.498-1.463-1.049-2.133-1.65c-1.483-0.986-2.53-2.505-2.925-4.242
			c0.22-2.045,0.64-6.918,1.055-13.818c37.206-7.432,71.958-24.064,101.084-48.379c5.762,20.212,8.71,41.122,8.761,62.139
			C418.133,478.9,416.858,481.025,413.225,483.537z M249.5,21.725c1.044-2.67,3.615-4.43,6.482-4.436
			c2.867-0.006,5.446,1.742,6.502,4.407l17.908,31.651c-16.147-2.729-32.637-2.729-48.783,0L249.5,21.725z M108.791,60.929
			c0.292-0.779,1.642-1.196,2.784-1.196c1.1-0.021,2.483,0.417,2.75,1.175c5.526,17.726,15.372,33.799,28.653,46.774l0.039,0.072
			c0.062,0.076,0.155,0.105,0.22,0.179c7.223,6.664,16.07,11.314,25.655,13.484c2.987,0.647,6.091-0.353,8.139-2.622
			s2.726-5.458,1.779-8.363c-0.948-2.905-3.376-5.082-6.368-5.707c-2.821-0.617-5.557-1.575-8.147-2.852
			c15.904-12.161,33.768-21.516,52.822-27.665c25.323-7.883,52.444-7.883,77.767,0c19.053,6.148,36.917,15.504,52.822,27.665
			c-2.59,1.277-5.326,2.235-8.147,2.852c-2.991,0.625-5.42,2.801-6.368,5.707c-0.947,2.905-0.269,6.095,1.779,8.363
			s5.152,3.268,8.139,2.622c9.606-2.176,18.47-6.842,25.702-13.529c0.05-0.057,0.125-0.075,0.173-0.134l0.039-0.072
			c13.281-12.975,23.127-29.048,28.653-46.773c0.267-0.754,1.6-1.167,2.725-1.175c0.825,0.1,2.508,0.413,2.808,1.192
			c11.233,30.671,21.95,74.063,9.192,106.629c-0.071,0.182-0.04,0.369-0.098,0.553c-0.05,0.19-0.064,0.377-0.101,0.57
			c-0.765,2.942,0.115,6.068,2.302,8.179c23.986,39.298,37.763,81.76,37.763,116.861c0,85.114-83.455,154.75-187.733,158.375V435.2
			c0-4.713-3.82-8.533-8.533-8.533s-8.533,3.82-8.533,8.533v16.892C143.188,448.466,59.733,378.83,59.733,293.716
			c0-35.101,13.777-77.562,37.763-116.861c2.187-2.111,3.067-5.237,2.302-8.179c-0.036-0.193-0.051-0.38-0.101-0.57
			c-0.058-0.183-0.027-0.371-0.098-0.553C86.842,134.987,97.558,91.596,108.791,60.929z"/>
		<path d="M85.775,278.9c-0.973,2.893-0.326,6.086,1.697,8.372s5.113,3.317,8.103,2.704c2.99-0.613,5.425-2.778,6.384-5.676
			c1.442-3.322,4.08-5.98,7.392-7.446c6.552-1.804,13.547-1.013,19.531,2.206l5.027,30.173c0.996,6.332,5.473,11.563,11.575,13.525
			c1.712,0.555,3.5,0.839,5.3,0.842c4.507-0.001,8.829-1.797,12.008-4.992l12.95-12.949l7.484,20.795
			c2.229,5.889,7.496,10.09,13.733,10.954c6.595,1.114,13.282-1.383,17.533-6.546l14.75-17.546l12.125,20.212
			c3.083,5.141,8.638,8.287,14.633,8.287c5.995,0,11.55-3.146,14.633-8.287l8.576-14.292l9.616,11.442
			c3.559,4.434,8.948,7.001,14.633,6.971c1.021,0,2.041-0.081,3.05-0.242c6.254-0.87,11.531-5.093,13.75-11.004l7.497-20.715
			l12.919,12.919c3.18,3.195,7.501,4.991,12.008,4.992c1.8-0.003,3.588-0.287,5.3-0.842c6.086-1.952,10.557-7.16,11.567-13.471
			l4.313-25.885c1.775-0.882,3.566-1.776,5.42-2.703c6.869-4.409,15.238-5.826,23.175-3.925c3.444,1.439,6.182,4.179,7.617,7.625
			c1.539,4.431,6.368,6.788,10.808,5.276c4.44-1.512,6.827-6.326,5.342-10.776c-2.981-8.035-9.148-14.482-17.042-17.817
			c-12.541-4.15-26.274-2.558-37.533,4.35c-33.917,16.958-49.401,24.7-115.651,24.7s-81.733-7.742-115.65-24.7
			c-11.26-6.908-24.992-8.5-37.533-4.35C94.922,264.418,88.756,270.865,85.775,278.9z M150.75,306.479l-3.072-18.444
			c5.035,2.381,9.956,4.571,15.01,6.527L150.75,306.479z M201.275,320.071c-0.268,0.301-0.647,0.481-1.05,0.5l-0.242,0.013
			c-0.467-0.004-0.767-0.117-0.717,0.029l-6.371-17.706c6.174,1.099,12.941,1.999,20.549,2.679L201.275,320.071z M245.416,307.108
			c3.418,0.051,6.891,0.092,10.583,0.092c3.692,0,7.166-0.041,10.583-0.092L256,324.746L245.416,307.108z M304.341,320.371
			c-0.337,0.18-0.721,0.25-1.1,0.2c-0.48-0.042-0.918-0.292-1.2-0.683l-11.486-13.669c7.192-0.468,13.631-1.116,19.571-1.909
			L304.341,320.371z M352.741,306.541l-9.705-9.705c4.143-1.41,8.13-2.952,12.078-4.634L352.741,306.541z"/>
		<path d="M179.2,247.466c18.59-0.066,34.989-12.185,40.51-29.937l6.873,3.437c4.214,2.094,9.328,0.383,11.432-3.826
			c2.104-4.209,0.405-9.327-3.799-11.441l-85.333-42.667c-2.728-1.372-5.982-1.182-8.532,0.498c-2.55,1.681-4.007,4.596-3.822,7.644
			c0.185,3.048,1.985,5.765,4.72,7.124l3.314,1.657c-9.349,12.985-10.635,30.113-3.331,44.349
			C148.536,238.542,163.199,247.487,179.2,247.466z M187.435,228.92c-0.631-4.06-4.127-7.054-8.235-7.054
			c-4.108,0-7.604,2.994-8.235,7.054c-8.144-2.709-14.366-9.351-16.538-17.654c-2.173-8.303-0.001-17.141,5.771-23.492
			l44.095,22.047C202.466,218.731,196.048,226.002,187.435,228.92z"/>
		<path d="M273.967,217.15c2.109,4.214,7.234,5.923,11.45,3.817l6.873-3.437c5.025,16.079,19.061,27.68,35.798,29.589
			c16.737,1.909,33.025-6.235,41.54-20.77c8.516-14.535,7.656-32.725-2.192-46.392l3.314-1.657
			c4.204-2.114,5.903-7.232,3.798-11.441c-2.104-4.209-7.218-5.92-11.432-3.826L277.784,205.7c-2.025,1.012-3.564,2.787-4.28,4.934
			C272.787,212.781,272.954,215.125,273.967,217.15z M358.4,204.8c-0.036,10.926-7.015,20.62-17.365,24.12
			c-0.631-4.06-4.127-7.054-8.235-7.054s-7.604,2.994-8.235,7.054c-8.614-2.918-15.032-10.189-16.858-19.099l44.095-22.047
			C356.043,192.43,358.396,198.501,358.4,204.8z"/>
		<path d="M290.133,145.066c0.001-2.263-0.898-4.434-2.499-6.035c-1.6-1.6-3.771-2.499-6.035-2.499h-51.2
			c-4.713,0-8.533,3.821-8.533,8.533s3.821,8.533,8.533,8.533h51.2c2.263,0.001,4.434-0.898,6.035-2.499
			C289.235,149.501,290.134,147.33,290.133,145.066z"/>
		<path d="M204.8,119.466h102.4c4.713,0,8.533-3.821,8.533-8.533c0-4.713-3.821-8.533-8.533-8.533H204.8
			c-4.713,0-8.533,3.821-8.533,8.533C196.267,115.646,200.087,119.466,204.8,119.466z"/>
		<path d="M230.4,256v8.533c0,4.713,3.821,8.533,8.533,8.533c4.713,0,8.533-3.821,8.533-8.533V256c0-4.713-3.821-8.533-8.533-8.533
			C234.22,247.466,230.4,251.287,230.4,256z"/>
		<path d="M273.067,273.066c2.263,0.001,4.434-0.898,6.035-2.499s2.499-3.771,2.499-6.035V256c0-4.713-3.821-8.533-8.533-8.533
			s-8.533,3.821-8.533,8.533v8.533c-0.001,2.263,0.898,4.434,2.499,6.035C268.632,272.168,270.803,273.067,273.067,273.066z"/>
	</g>
</g>
<g>
</g>
<g>
</g>
<g>
</g>
<g>
</g>
<g>
</g>
<g>
</g>
<g>
</g>
<g>
</g>
<g>
</g>
<g>
</g>
<g>
</g>
<g>
</g>
<g>
</g>
<g>
</g>
<g>
</g>
</svg>
