<svg id="Layer_1" enable-background="new 0 0 512 512" height="512" viewBox="0 0 512 512" width="512" xmlns="http://www.w3.org/2000/svg"><g><g><path d="m364.648 431h-217.296v-47.547c0-33.092 26.826-59.918 59.918-59.918h97.46c33.092 0 59.918 26.826 59.918 59.918z" fill="#ffcca6"/><path d="m304.73 323.534h-23.644c33.092 0 59.918 26.826 59.918 59.918v47.548h23.644v-47.547c0-33.093-26.826-59.919-59.918-59.919z" fill="#eaa178"/><path d="m207.27 323.534h23.644c-33.092 0-59.918 26.826-59.918 59.918v47.548h-23.644v-47.547c0-33.093 26.826-59.919 59.918-59.919z" fill="#ffe5cc"/><path d="m304.73 323.534h-17.311-64.436-15.713c-33.092 0-59.918 26.826-59.918 59.918v14.691h50.159v32.857h116.978v-32.856h50.16v-14.691c-.001-33.092-26.827-59.919-59.919-59.919z" fill="#fff"/><path d="m364.648 398.144v-14.691c0-33.092-26.826-59.918-59.918-59.918h-17.311-6.332c33.092 0 59.918 26.826 59.918 59.918v14.691z" fill="#e6e6e6"/><path d="m294.387 323.534h-76.775c2.336 19.131 18.626 33.952 38.387 33.952 19.763 0 36.052-14.821 38.388-33.952z" fill="#eaa178"/><path d="m304.73 323.534h-14.687v57.956h-68.087v-57.956h-14.686c-3.324 0-6.582.283-9.759.804v73.806 32.856h116.978v-106.662c-3.177-.521-6.435-.804-9.759-.804z" fill="#57d7ff"/><path d="m225.528 396.328h60.944v21.407h-60.944z" fill="#ffc200"/><path d="m255.941 327.735c-43.836 0-79.372-35.536-79.372-79.372v-96.382h158.744v97.01c-.001 43.208-35.537 78.744-79.372 78.744z" fill="#ffcca6"/><g fill="#eaa178"><path d="m147.863 226.82c0 15.886 12.878 28.765 28.765 28.765v-57.529c-15.886-.001-28.765 12.878-28.765 28.764z"/><path d="m364.077 226.82c0 15.886-12.878 28.765-28.765 28.765v-57.529c15.887-.001 28.765 12.878 28.765 28.764z"/><path d="m311.551 151.982v96.381c0 39.798-29.292 72.749-67.491 78.484 3.876.582 7.842.888 11.881.888 43.836 0 79.372-35.536 79.372-79.372v-96.381z"/></g><path d="m200.33 151.982v96.381c0 39.798 29.292 72.749 67.491 78.484-3.876.582-7.842.888-11.881.888-43.836 0-79.372-35.536-79.372-79.372v-96.381z" fill="#ffe5cc"/><path d="m172.369 135.01c-8.862 12.835-18.453 33.817-18.453 49.414v24.755c7.492-9.769 18.292-11.198 22.712-11.124v19.011l24.698-65.712z" fill="#7a4725"/><path d="m176.568 184.424c0-12.175 5.848-27.616 12.627-39.917l-16.827-9.497c-8.862 12.835-18.453 33.817-18.453 49.414v24.755c7.461-9.729 18.199-11.185 22.652-11.124v-13.631z" fill="#995a37"/><path d="m344.432 140.763c8.862 12.835 13.609 28.063 13.609 43.661v24.755c-7.492-9.769-18.292-11.198-22.712-11.124v19.011l-24.698-65.712z" fill="#7a4725"/><path d="m344.432 140.763-19.02 5.96c6.463 11.475 9.9 24.452 9.9 37.701l.017 13.631c4.42-.075 15.22 1.355 22.712 11.124v-24.755c0-15.597-4.746-30.825-13.609-43.661z" fill="#6b3720"/><path d="m309.184 97.223h-88.558c-29.638-1.14-48.35-11.362-58.36-16.223v16.223 18.321c0 20.124 16.314 36.438 36.438 36.438h131.056c8.881 0 16.081-7.2 16.081-16.081v-2.021c0-20.245-16.412-36.657-36.657-36.657z" fill="#7a4725"/><path d="m309.184 97.223h-23.802c20.245 0 36.657 16.412 36.657 36.657v2.021c0 8.881-7.2 16.081-16.081 16.081h23.802c8.881 0 16.081-7.199 16.081-16.081v-2.021c0-20.245-16.412-36.657-36.657-36.657z" fill="#6b3720"/><path d="m186.048 115.544v-18.321-6.062c-10.628-3.451-18.444-7.569-23.783-10.161v16.223 18.321c0 20.124 16.314 36.438 36.438 36.438h23.782c-20.124-.001-36.437-16.314-36.437-36.438z" fill="#995a37"/><path d="m255.999 266.001h-35.277c.001 14.563 14.661 29.125 35.278 29.125v-.001c20.617 0 35.278-14.562 35.278-29.125h-35.279z" fill="#e50707"/><path d="m224.582 278.925h62.836c2.214-3.591 3.544-7.508 3.808-11.463.015-.487.051-.973.051-1.46h-35.279-35.277c0 .487.036.972.051 1.459.266 3.955 1.596 7.873 3.81 11.464z" fill="#fff"/><path d="m220.722 237.718c-6.234 0-11.287-5.053-11.287-11.287v-8.893c0-6.234 5.053-11.287 11.287-11.287 6.234 0 11.287 5.053 11.287 11.287v8.893c.001 6.234-5.053 11.287-11.287 11.287z" fill="#402943"/><path d="m291.277 237.718c-6.234 0-11.287-5.053-11.287-11.287v-8.893c0-6.234 5.053-11.287 11.287-11.287 6.234 0 11.287 5.053 11.287 11.287v8.893c0 6.234-5.053 11.287-11.287 11.287z" fill="#402943"/></g><g fill="#402943"><path d="m286.472 392.328h-60.943c-2.209 0-4 1.791-4 4v21.407c0 2.209 1.791 4 4 4h60.943c2.209 0 4-1.791 4-4v-21.407c0-2.209-1.791-4-4-4zm-4 21.407h-52.943v-13.407h52.943z"/><path d="m256.031 299.126c10.62 0 20.565-3.584 28.002-10.091 7.165-6.268 11.274-14.663 11.274-23.034 0-2.209-1.791-4-4-4h-70.556c-1.061 0-2.078.422-2.829 1.172-.75.75-1.171 1.768-1.171 2.829.001 15.997 15.784 33.125 39.278 33.124zm30.833-29.125c-.521 2.367-1.492 4.709-2.866 6.923h-55.936c-1.373-2.215-2.345-4.556-2.866-6.923zm-55.739 10.924h49.81c-5.478 5.93-14.18 10.202-24.905 10.202s-19.426-4.273-24.905-10.202z"/><path d="m315.326 320.429c-.028-.006-.056-.01-.084-.015-3.422-.569-6.931-.88-10.512-.88h-5.383c20.979-12.833 35.852-34.681 39.24-60.111 16.549-1.635 29.52-15.631 29.52-32.603 0-7.042-2.24-13.566-6.036-18.914v-23.482c0-15.541-4.435-30.586-12.824-43.648.392-1.564.623-3.191.623-4.875v-2.021c0-22.419-18.239-40.657-40.657-40.657h-88.481c-26.698-1.042-44.082-9.611-54.472-14.733-.782-.385-1.521-.75-2.219-1.088-1.239-.602-2.701-.523-3.87.208-1.168.731-1.877 2.012-1.877 3.39v34.544c0 8.503 2.644 16.397 7.145 22.915-7.449 12.411-15.494 30.995-15.494 45.965v23.458c-3.805 5.352-6.053 11.885-6.053 18.938 0 16.951 12.94 30.936 29.46 32.598 3.386 25.432 18.26 47.282 39.24 60.116h-5.323c-3.581 0-7.09.311-10.512.88-.028.005-.056.009-.084.015-30.217 5.065-53.322 31.39-53.322 63.024v47.547c0 2.209 1.791 4 4 4h217.297c2.209 0 4-1.791 4-4v-47.548c0-31.633-23.105-57.958-53.322-63.023zm45.322 63.023v10.691h-42.16v-64.892c24.203 6.147 42.16 28.115 42.16 54.201zm-159.137 2.038h20.445 68.087 20.445v41.51h-108.977zm26.986-57.956c.342 0 .669-.056.986-.137 8.328 2.799 17.228 4.338 26.487 4.338 9.142 0 17.935-1.5 26.172-4.232.101.008.198.03.301.03h3.6v8.546c-6.192 10.754-17.606 17.406-30.043 17.406-12.438 0-23.852-6.653-30.044-17.406v-8.545zm-2.541 21.552c7.879 7.823 18.608 12.399 30.044 12.399 11.435 0 22.164-4.576 30.043-12.399v28.404h-60.087zm84.533-21.256v49.66h-16.445v-49.956h10.687c1.943 0 3.864.101 5.758.296zm28.853-76.568v-2.898-31.034c.008-.115.002-.231 0-.348v-14.604c11.76 1.918 20.765 12.148 20.765 24.442 0 12.293-9.005 22.524-20.765 24.442zm14.729-66.838v15.535c-5.313-3.716-11.768-5.904-18.729-5.904-1.548 0-2.876.889-3.541 2.176l-15.128-40.25h13.117c6.027 0 11.428-2.682 15.112-6.899 6.009 10.802 9.169 22.895 9.169 35.342zm-187.776-97.013c10.845 5.215 28.789 12.832 54.207 13.809.051.002.103.003.154.003h88.558c18.007 0 32.657 14.65 32.657 32.657v2.021c0 6.661-5.419 12.081-12.081 12.081h-131.058c-17.886 0-32.438-14.551-32.438-32.438v-28.133zm4.657 57.476c6.493 6.151 15.015 10.172 24.448 10.946l-15.191 40.417c-.661-1.297-1.995-2.195-3.551-2.195-6.953 0-13.402 2.184-18.712 5.892v-15.523c0-11.783 6.173-27.532 13.006-39.537zm1.706 106.375c-11.76-1.918-20.765-12.148-20.765-24.442 0-12.293 9.005-22.524 20.765-24.442v12.531c-.029.194-.06.388-.06.591v32.863c0 .787.038 1.566.06 2.348zm8-.551v-32.919l23.232-61.811h104.238l23.215 61.767v30.615c0 41.56-33.812 75.372-75.372 75.372-40.774 0-74.066-32.548-75.313-73.024zm37.298 76.823v49.956h-16.445v-49.66c1.894-.195 3.815-.296 5.759-.296zm-24.445 1.717v64.892h-42.16v-10.691c.001-26.086 17.958-48.054 42.16-54.201zm-42.159 72.893h42.16v24.856h-42.16zm167.137 24.856v-24.856h42.16v24.856z"/></g></g></svg>